<?xml version="1.0" standalone="no"?>
<!DOCTYPE svg PUBLIC "-//W3C//DTD SVG 20010904//EN"
 "http://www.w3.org/TR/2001/REC-SVG-20010904/DTD/svg10.dtd">
<svg version="1.0" xmlns="http://www.w3.org/2000/svg"
 width="30.000000pt" height="30.000000pt" viewBox="0 0 30.000000 30.000000"
 preserveAspectRatio="xMidYMid meet">

<g transform="translate(0.000000,30.000000) scale(0.100000,-0.100000)"
fill="#000000" stroke="none">
<path d="M95 286 c-102 -44 -122 -172 -40 -245 64 -56 147 -50 204 14 53 61
50 143 -7 198 -48 46 -102 57 -157 33z m70 -106 l-29 -30 29 -30 c19 -20 26
-33 19 -40 -7 -7 -23 4 -49 30 l-39 40 39 40 c26 26 42 37 49 30 7 -7 0 -20
-19 -40z"/>
</g>
</svg>
