<?xml version="1.0" standalone="no"?>
<!DOCTYPE svg PUBLIC "-//W3C//DTD SVG 20010904//EN"
 "http://www.w3.org/TR/2001/REC-SVG-20010904/DTD/svg10.dtd">
<svg version="1.0" xmlns="http://www.w3.org/2000/svg"
 width="30.000000pt" height="30.000000pt" viewBox="0 0 30.000000 30.000000"
 preserveAspectRatio="xMidYMid meet">

<g transform="translate(0.000000,30.000000) scale(0.100000,-0.100000)"
fill="#000000" stroke="none">
<path d="M95 286 c-102 -44 -122 -172 -40 -245 64 -56 147 -50 204 14 53 61
50 143 -7 198 -48 46 -102 57 -157 33z m99 -125 c45 -46 31 -70 -15 -25 l-29
28 -29 -28 c-46 -45 -60 -21 -15 25 21 22 41 39 44 39 3 0 23 -17 44 -39z"/>
</g>
</svg>
