<svg width="36" height="36" viewBox="0 0 36 36" fill="none" xmlns="http://www.w3.org/2000/svg">
<circle cx="17.8481" cy="17.9264" r="17.345" fill="#C200AF"/>
<path d="M25.1987 16.3157H19.7423C19.565 16.3157 19.4213 16.1715 19.4213 15.9936V10.5175C19.4213 9.62808 18.7027 8.90692 17.8165 8.90692C16.9302 8.90692 16.2116 9.62808 16.2116 10.5175V15.9936C16.2116 16.1715 16.0679 16.3157 15.8906 16.3157H10.4342C9.54792 16.3157 8.82935 17.0369 8.82935 17.9263C8.82935 18.8158 9.54792 19.5369 10.4342 19.5369H15.8906C16.0679 19.5369 16.2116 19.6811 16.2116 19.859V25.3351C16.2116 26.2245 16.9302 26.9457 17.8165 26.9457C18.7027 26.9457 19.4213 26.2245 19.4213 25.3351V19.859C19.4213 19.6811 19.565 19.5369 19.7423 19.5369H25.1987C26.085 19.5369 26.8036 18.8158 26.8036 17.9263C26.8036 17.0369 26.085 16.3157 25.1987 16.3157Z" fill="white"/>
</svg>
