<svg width="36" height="36" viewBox="0 0 36 36" fill="none" xmlns="http://www.w3.org/2000/svg">
<circle cx="17.8481" cy="17.8334" r="17.345" fill="#235390"/>
<path d="M25.1987 16.2227H19.7423C19.565 16.2227 19.4213 16.0784 19.4213 15.9006V10.4245C19.4213 9.53506 18.7027 8.8139 17.8165 8.8139C16.9302 8.8139 16.2116 9.53506 16.2116 10.4245V15.9006C16.2116 16.0784 16.0679 16.2227 15.8906 16.2227H10.4342C9.54792 16.2227 8.82935 16.9438 8.82935 17.8333C8.82935 18.7227 9.54792 19.4439 10.4342 19.4439H15.8906C16.0679 19.4439 16.2116 19.5881 16.2116 19.766V25.2421C16.2116 26.1315 16.9302 26.8527 17.8165 26.8527C18.7027 26.8527 19.4213 26.1315 19.4213 25.2421V19.766C19.4213 19.5881 19.565 19.4439 19.7423 19.4439H25.1987C26.085 19.4439 26.8036 18.7227 26.8036 17.8333C26.8036 16.9438 26.085 16.2227 25.1987 16.2227Z" fill="white"/>
</svg>
