<svg width="75" height="75" viewBox="0 0 75 75" fill="none" xmlns="http://www.w3.org/2000/svg">
<path d="M37.5 75C58.2107 75 75 58.2107 75 37.5C75 16.7893 58.2107 0 37.5 0C16.7893 0 0 16.7893 0 37.5C0 58.2107 16.7893 75 37.5 75Z" fill="#235390"/>
<path d="M75.0002 37.4999C75.0002 35.1396 74.7797 32.831 74.3627 30.5917L58.1388 14.3323C49.8525 5.77772 37.6392 12.8618 37.3679 12.9685C37.0892 12.8589 24.1975 5.37723 15.9178 15.0757L19.6123 18.7819C15.419 21.1725 10.0692 25.5366 8.95801 32.5927L14.6485 38.2933C14.2285 39.5342 13.9007 40.8503 13.7545 42.186L20.4063 48.6899C20.1405 49.1385 19.9014 49.6293 19.693 50.1655L25.9462 56.4464H23.8522C20.278 56.4464 17.0466 58.5762 15.6374 61.8604L13.6672 66.4511C13.7617 66.5299 13.8573 66.6061 13.9525 66.6831C14.0353 66.7499 14.1178 66.8172 14.2011 66.8834C14.3438 66.9964 14.4872 67.1087 14.6319 67.2193C14.6432 67.2279 14.6545 67.2365 14.6658 67.2452C14.8298 67.3704 14.9949 67.4946 15.1606 67.6177L15.1596 67.6202C21.3998 72.2561 29.1293 74.9999 37.5002 74.9999C58.2109 74.9999 75.0002 58.2106 75.0002 37.4999Z" fill="#235390"/>
<path d="M55.9966 30.5236L65.778 32.5927C63.897 20.6482 49.8683 16.416 49.8683 16.416L58.8182 15.0758C50.5383 5.37723 37.6467 12.8589 37.3679 12.9685C37.0892 12.8589 24.1975 5.37723 15.9178 15.0757L24.8677 16.4158C24.8677 16.4158 10.839 20.6481 8.95801 32.5925L18.7394 30.5235C18.7394 30.5235 14.4129 36.1665 13.7546 42.1858C13.7546 42.1858 19.578 43.1084 24.3726 45.2097C22.4019 46.0638 20.6939 47.5908 19.6931 50.1654C19.6931 50.1654 30.4153 53.3467 33.0958 55.9407H37.3681H41.6401C44.3206 53.3467 55.0429 50.1654 55.0429 50.1654C54.0421 47.5908 52.3341 46.0638 50.3634 45.2097C55.158 43.1084 60.9813 42.1858 60.9813 42.1858C60.3229 36.1666 55.9966 30.5236 55.9966 30.5236Z" fill="white"/>
<path d="M60.9814 42.186C60.9814 42.186 55.1572 43.1089 50.3628 45.2095C52.3345 46.0635 54.0425 47.5913 55.043 50.165C55.043 50.165 44.3203 53.3467 41.6397 55.9409H37.5V12.9008C38.9092 12.1611 50.9473 5.85641 58.8179 15.0761L49.8677 16.4165C49.8677 16.4165 63.8965 20.6484 65.7774 32.5927L55.9966 30.5229C55.9966 30.5229 60.3223 36.167 60.9814 42.186Z" fill="#FFF5CB"/>
<path d="M43.8252 50.1708H31.1748V66.1303H43.8252V50.1708Z" fill="#FFC473"/>
<path d="M43.8252 50.1708H37.5V66.1303H43.8252V50.1708Z" fill="#FFAA20"/>
<path d="M52.4044 30.942C51.7766 21.7 43.8949 16.4547 37.3677 16.4547C30.8405 16.4547 22.9587 21.7 22.3309 30.942C20.642 31.2584 19.4433 32.8369 19.6312 34.5724L19.9221 37.2579C20.1194 39.0797 21.7715 40.4089 23.5933 40.2116L23.9071 40.1776C27.6366 49.8856 33.655 52.3849 37.3678 52.9527C41.0806 52.3849 47.0991 49.8855 50.8286 40.1776L51.1423 40.2116C52.9642 40.4089 54.6162 39.0797 54.8135 37.2579L55.1045 34.5724C55.2921 32.8369 54.0936 31.2584 52.4044 30.942Z" fill="#FFDBA9"/>
<path d="M55.1045 34.5725L54.8133 37.2586C54.6153 39.0803 52.9641 40.4089 51.1423 40.2122L50.8275 40.178C47.0987 49.886 41.0801 52.3844 37.3672 52.9524V16.4549C43.8055 16.4549 51.5618 21.5581 52.3751 30.5671C52.3869 30.6968 52.396 30.8215 52.4039 30.9422C54.0933 31.2582 55.292 32.8373 55.1045 34.5725Z" fill="#FFC473"/>
<path d="M35.0838 32.2733H27.3306V35.6327H35.0838V32.2733Z" fill="#FFC473"/>
<path d="M37.3672 32.2737V42.9515H40.7267V35.633H48.045V32.2737H37.3672Z" fill="#FFA91F"/>
<path d="M60.855 66.8393C54.4477 71.9473 46.3296 75 37.4995 75C28.6694 75 20.5513 71.9473 14.144 66.8393C14.3213 61.8823 17.8896 57.7485 22.5874 56.7026C22.6357 56.6924 22.6855 56.6821 22.7354 56.6719C22.7852 56.6616 22.8335 56.6499 22.8833 56.6411C22.9023 56.6367 22.9214 56.6338 22.939 56.6309C22.977 56.6221 23.0181 56.6147 23.0576 56.6074C23.0664 56.606 23.0737 56.6045 23.0825 56.603C23.1162 56.5972 23.1499 56.5913 23.1836 56.5884C23.251 56.5767 23.3169 56.5664 23.3857 56.5562C23.3975 56.5547 23.4121 56.5518 23.4253 56.5503C23.4414 56.5474 23.4575 56.5459 23.4751 56.543C23.5132 56.5386 23.5513 56.5327 23.5908 56.5283C23.5967 56.5269 23.604 56.5269 23.6099 56.5254C23.626 56.5239 23.6392 56.521 23.6553 56.521C23.6743 56.5181 23.6963 56.5151 23.7168 56.5137C23.8164 56.502 23.9175 56.4932 24.0186 56.4844C24.0244 56.4844 24.0288 56.4829 24.0347 56.4829C24.0669 56.48 24.0991 56.4771 24.1328 56.4741C24.1387 56.4741 24.1475 56.4727 24.1548 56.4727C24.2119 56.4697 24.2676 56.4653 24.3247 56.4624C24.4214 56.4565 24.521 56.4521 24.6206 56.4492C24.7202 56.4478 24.8198 56.4463 24.9209 56.4463H50.0781C50.1631 56.4463 50.248 56.4478 50.3315 56.4492H50.3784C50.396 56.4492 50.415 56.4507 50.4341 56.4521C50.4443 56.4521 50.456 56.4522 50.4678 56.4536C50.5366 56.4551 50.6055 56.458 50.6728 56.4624H50.6743C50.7314 56.4653 50.7871 56.4697 50.8442 56.4727C50.8516 56.4727 50.8603 56.4741 50.8662 56.4741C50.8999 56.4771 50.9321 56.48 50.9644 56.4829C50.9702 56.4829 50.9746 56.4844 50.9805 56.4844C51.083 56.4917 51.1841 56.5005 51.2822 56.5137C51.3027 56.5151 51.3247 56.5181 51.3437 56.521C51.3599 56.521 51.373 56.5239 51.3892 56.5254C51.395 56.5269 51.4023 56.5269 51.4082 56.5283C51.4478 56.5327 51.4858 56.5386 51.5239 56.543C51.5415 56.5459 51.5576 56.5474 51.5737 56.5503C51.5854 56.5518 51.5986 56.5532 51.6089 56.5562H51.6133C51.7158 56.5708 51.8154 56.5869 51.9165 56.603C51.9253 56.6045 51.9326 56.606 51.9414 56.6074C51.9809 56.6147 52.022 56.6221 52.0601 56.6309C52.1216 56.6411 52.1831 56.6543 52.2446 56.666C52.2827 56.6748 52.3193 56.6821 52.356 56.6909C52.375 56.6938 52.394 56.6982 52.4116 56.7026C57.1094 57.7485 60.6777 61.8823 60.855 66.8393Z" fill="#FFDBA9"/>
<path d="M60.8555 66.8393C54.4482 71.9473 46.3301 75 37.5 75V56.4463H50.0786C50.1636 56.4463 50.2485 56.4478 50.332 56.4492H50.3789C50.3965 56.4492 50.4155 56.4507 50.4346 56.4521C50.4448 56.4521 50.4565 56.4522 50.4683 56.4536C50.5371 56.4551 50.606 56.458 50.6733 56.4624H50.6748C50.7319 56.4653 50.7876 56.4697 50.8447 56.4727C50.8521 56.4727 50.8608 56.4741 50.8667 56.4741C50.9004 56.4771 50.9326 56.48 50.9648 56.4829C50.9707 56.4829 50.9751 56.4844 50.981 56.4844C51.0835 56.4917 51.1846 56.5005 51.2827 56.5137C51.3032 56.5151 51.3252 56.5181 51.3442 56.521C51.3604 56.521 51.3735 56.5239 51.3896 56.5254C51.3955 56.5269 51.4028 56.5269 51.4087 56.5283C51.4482 56.5327 51.4863 56.5386 51.5244 56.543C51.542 56.5459 51.5581 56.5474 51.5742 56.5503C51.5859 56.5518 51.5991 56.5532 51.6094 56.5562H51.6138C51.7163 56.5708 51.8159 56.5869 51.917 56.603C51.9258 56.6045 51.9331 56.606 51.9419 56.6074C51.9814 56.6147 52.0225 56.6221 52.0605 56.6309C52.1221 56.6411 52.1836 56.6543 52.2451 56.666C52.2832 56.6748 52.3198 56.6821 52.3564 56.6909C52.3755 56.6938 52.3945 56.6982 52.4121 56.7026C57.1099 57.7485 60.6782 61.8823 60.8555 66.8393Z" fill="#FFC473"/>
<path d="M47.668 56.4463V73.604C46.376 73.9673 45.0576 74.2632 43.7129 74.4873C42.4634 74.6953 41.1934 74.8418 39.9058 74.9238C39.1104 74.9751 38.3091 75 37.5005 75C36.6919 75 35.8906 74.9751 35.0952 74.9238C33.8076 74.8418 32.5376 74.6953 31.2881 74.4873C29.9434 74.2632 28.625 73.9673 27.333 73.604V56.4463H47.668Z" fill="#00D9E0"/>
<path d="M47.6675 56.4463V73.604C46.3755 73.9673 45.0571 74.2632 43.7124 74.4873C42.4629 74.6953 41.1929 74.8418 39.9053 74.9238C39.1099 74.9751 38.3086 75 37.5 75V56.4463H47.6675Z" fill="#00989D"/>
<path d="M35.0947 74.9238C33.8071 74.8418 32.5371 74.6953 31.2876 74.4873C24.876 73.418 19.0166 70.7226 14.1445 66.8393C13.9849 66.7119 13.8252 66.583 13.667 66.4512L15.6372 61.8603C17.0464 58.5762 20.2778 56.4463 23.8521 56.4463H30.0088L35.0947 74.9238Z" fill="white"/>
<path d="M61.3335 66.4512C61.1753 66.583 61.0156 66.7119 60.856 66.8393C55.9839 70.7226 50.1245 73.418 43.7129 74.4873C42.4634 74.6953 41.1934 74.8418 39.9058 74.9238L44.9917 56.4463H51.1484C54.7227 56.4463 57.9541 58.5762 59.3633 61.8603L61.3335 66.4512Z" fill="#FFF5CB"/>
<path d="M31.2876 74.4873L31.9439 72.9272L23.2646 60.9067L30.0088 56.4463L35.0947 74.9238C33.8071 74.8418 32.5371 74.6953 31.2876 74.4873Z" fill="#FFF5CB"/>
<path d="M43.0566 72.9272L43.7129 74.4873C42.4634 74.6953 41.1934 74.8418 39.9058 74.9238L44.9917 56.4463L51.7358 60.9067L43.0566 72.9272Z" fill="#FFDF47"/>
<path d="M51.6031 22.7051C48.5144 13.0371 37.3678 13.1836 37.3678 13.1836C37.3678 13.1836 26.2212 13.0371 23.1324 22.7051L22.1987 30.942L31.0758 22.7051L37.3676 28.5644L43.6594 22.7051L52.5367 30.942L51.6031 22.7051Z" fill="white"/>
<path d="M52.5366 30.9419L43.6597 22.7051L37.5 28.44V13.1851C38.7715 13.2056 48.7134 13.6612 51.602 22.7051L52.5366 30.9419Z" fill="#FFF5CB"/>
<path d="M46.3593 46.3936C46.3593 46.3936 44.9075 46.4343 41.9722 44.4818C39.767 43.015 38.0737 44.0965 37.3676 44.7252C36.6616 44.0965 34.9682 43.015 32.763 44.4818C29.8278 46.4343 28.376 46.3936 28.376 46.3936C28.376 46.3936 33.7131 49.8981 37.3676 46.548C41.0221 49.8983 46.3593 46.3936 46.3593 46.3936Z" fill="white"/>
<path d="M46.3594 46.393C46.3594 46.393 41.1489 49.8149 37.5 46.6655V44.6117C38.2705 43.9804 39.895 43.1 41.9722 44.4814C44.9077 46.434 46.3594 46.393 46.3594 46.393Z" fill="#FFF5CB"/>
<path d="M25.6216 32.6268V38.344C25.6216 39.9978 26.9622 41.3384 28.616 41.3384H33.4688C34.4969 41.3384 35.41 40.681 35.736 39.706L36.4859 37.4639C36.769 36.6171 37.9668 36.6171 38.2502 37.4639L39 39.706C39.3261 40.681 40.2391 41.3384 41.2673 41.3384H46.12C47.7738 41.3384 49.1145 39.9978 49.1145 38.344V32.6268H25.6216Z" fill="#49BBEE"/>
<path d="M49.1137 32.6268V38.3441C49.1137 39.998 47.7732 41.3385 46.1192 41.3385H41.2668C40.2385 41.3385 39.3259 40.6808 38.9995 39.7061L38.2497 37.464C38.1077 37.0405 37.7377 36.8284 37.3677 36.8284V32.6268H49.1137Z" fill="#009AE5"/>
<path d="M46.1198 42.076H41.267C39.9198 42.076 38.7276 41.2176 38.3003 39.9399L37.5504 37.6979C37.5213 37.6107 37.4598 37.5665 37.3678 37.5665C37.2758 37.5665 37.2143 37.6107 37.1851 37.698L36.4353 39.9401C36.008 41.2177 34.8157 42.0761 33.4685 42.0761H28.6158C26.558 42.0761 24.8838 40.402 24.8838 38.3441V31.8895H49.8518V38.3441C49.8518 40.4018 48.1776 42.076 46.1198 42.076ZM37.3679 36.0912C38.0973 36.0912 38.7182 36.5381 38.9495 37.2298L39.6994 39.4721C39.9252 40.1472 40.5553 40.6009 41.2672 40.6009H46.1199C47.3643 40.6009 48.3768 39.5884 48.3768 38.344V33.3644H26.359V38.344C26.359 39.5884 27.3715 40.6009 28.6159 40.6009H33.4686C34.1806 40.6009 34.8106 40.1472 35.0365 39.4721L35.7863 37.23C36.0176 36.5381 36.6384 36.0912 37.3679 36.0912Z" fill="white"/>
<path d="M37.3682 31.8892V33.3643H48.3767V38.344C48.3767 39.5887 47.3644 40.6009 46.1199 40.6009H41.2674C40.5557 40.6009 39.9256 40.1474 39.6995 39.4718L38.9496 37.2296C38.7185 36.5382 38.0978 36.0912 37.3682 36.0912V37.5663C37.4603 37.5663 37.5218 37.6106 37.5507 37.6979L38.3005 39.94C38.7277 41.2172 39.9201 42.0758 41.2673 42.0758H46.1197C48.1775 42.0758 49.8517 40.4015 49.8517 38.3439V31.889L37.3682 31.8892Z" fill="#FFF5CB"/>
<path d="M49.8516 30.5156H24.8833V32.1191H49.8516V30.5156Z" fill="#3A4DE3"/>
<path d="M49.8521 30.5156H37.3687V32.119H49.8521V30.5156Z" fill="#1C2EDE"/>
</svg>
